<?xml version='1.0' encoding='UTF-8'?>
<svg xmlns="http://www.w3.org/2000/svg" xmlns:svg="http://www.w3.org/2000/svg" width="800" height="280" viewBox="0 0 800 280" version="1.1" id="svg33">
  <defs id="defs9">
    <mask id="final-stencil-mask">
      <rect width="800" height="280" fill="white" id="rect4"/>
      <rect x="0" y="138" width="800" height="4" fill="black" id="rect6"/>
    </mask>
  </defs>
  <path id="rect11" style="fill:#030508" d="M 0,0 H 800 V 280 H 0 Z"/>
  <!-- === WORDMARK LAYER (Optical Kerning Applied) === -->
  <g font-family="JuraLight" font-size="130" fill="#ffffff" mask="url(#final-stencil-mask)" id="g25">
    <g aria-label="S" id="text13">
      <path d="m 193.02,184.87 q -11.765,0 -17.225,-5.395 -5.395,-5.395 -5.395,-17.095 0,-1.17 0.78,-1.95 0.78,-0.78 1.95,-0.78 1.17,0 1.95,0.78 0.78,0.78 0.78,1.95 0,9.425 3.77,13.26 3.835,3.77 13.39,3.77 h 18.72 q 9.555,0 13.325,-3.77 3.835,-3.835 3.835,-13.26 0,-9.49 -3.835,-13.26 -3.77,-3.77 -13.325,-3.77 h -18.33 q -11.18,0 -16.315,-5.07 -5.135,-5.135 -5.135,-16.25 0,-11.115 5.07,-16.185 5.135,-5.135 16.25,-5.135 h 19.11 q 11.115,0 16.185,5.07 5.135,5.07 5.135,16.12 0,1.17 -0.78,1.95 -0.78,0.78 -1.95,0.78 -1.17,0 -1.95,-0.78 -0.78,-0.78 -0.78,-1.95 0,-8.71 -3.575,-12.22 -3.51,-3.51 -12.285,-3.51 h -19.11 q -8.775,0 -12.35,3.575 -3.51,3.51 -3.51,12.285 0,8.775 3.575,12.35 3.575,3.51 12.415,3.51 h 18.33 q 11.83,0 17.225,5.395 5.395,5.395 5.395,17.095 0,11.7 -5.395,17.095 -5.395,5.395 -17.225,5.395 z" id="path38"/>
    </g>
    <g aria-label="O" id="text15">
      <path d="m 276.79,185 q -13.845,0 -20.15,-6.24 -6.24,-6.305 -6.24,-20.15 V 129.1 q 0,-13.975 6.24,-20.215 6.305,-6.305 20.02,-6.175 h 15.73 q 13.845,0 20.085,6.305 6.305,6.24 6.305,20.085 v 29.51 q 0,13.845 -6.305,20.15 -6.24,6.24 -20.085,6.24 z m 0,-5.46 h 15.6 q 7.67,0 12.22,-2.015 4.615,-2.08 6.63,-6.63 2.08,-4.615 2.08,-12.285 V 129.1 q 0,-7.67 -2.08,-12.22 -2.015,-4.615 -6.63,-6.63 -4.55,-2.08 -12.22,-2.08 h -15.73 q -7.67,-0.065 -12.22,1.95 -4.55,2.015 -6.565,6.63 -2.015,4.615 -2.015,12.35 v 29.51 q 0,7.67 2.015,12.285 2.08,4.55 6.63,6.63 4.615,2.015 12.285,2.015 z" id="path41"/>
    </g>
    <!-- N을 O 쪽으로 살짝 당김 -->
    <g aria-label="N" id="text17">
      <path d="m 344.43,185 q -2.73,0 -2.73,-2.73 v -76.83 q 0,-2.73 2.73,-2.73 1.495,0 2.86,1.56 l 56.03,71.89 h -1.17 v -70.72 q 0,-2.73 2.73,-2.73 2.73,0 2.73,2.73 v 76.83 q 0,2.73 -2.73,2.73 -1.495,0 -2.86,-1.56 l -56.03,-71.89 h 1.17 v 70.72 q 0,2.73 -2.73,2.73 z" id="path44"/>
    </g>
    <!-- A의 사선 여백을 채우기 위해 N 쪽으로 바짝 당김 -->
    <g aria-label="A" id="text19">
      <path d="m 419.29,184.74 q -2.405,-1.17 -1.43,-3.64 l 32.63,-76.31 q 0.78,-2.08 3.12,-2.08 H 454 q 2.145,0 3.12,2.08 l 32.5,76.31 q 1.105,2.47 -1.43,3.64 -2.47,1.04 -3.51,-1.43 l -9.165,-21.58 h -43.29 l -9.295,21.58 q -1.04,2.47 -3.64,1.43 z m 15.275,-28.47 h 38.61 L 454,111.29 Z" id="path47"/>
    </g>
    <!-- G도 A의 사선 밑으로 살짝 파고들도록 바짝 당김 -->
    <g aria-label="G" id="text21">
      <path d="m 536.79,185 q -13.845,0 -20.15,-6.24 -6.24,-6.305 -6.24,-20.15 V 129.1 q 0,-13.975 6.24,-20.15 6.305,-6.24 20.02,-6.24 h 15.73 q 11.895,0 17.55,4.94 5.655,4.94 6.11,15.99 0.13,1.365 -0.585,2.145 -0.65,0.715 -2.015,0.715 -2.665,0 -2.86,-2.73 -0.39,-8.775 -4.55,-12.155 -4.095,-3.445 -13.65,-3.445 h -15.73 q -7.67,0 -12.22,2.015 -4.55,2.015 -6.565,6.63 -2.015,4.55 -2.015,12.285 v 29.51 q 0,7.67 2.015,12.285 2.08,4.55 6.63,6.63 4.615,2.015 12.285,2.015 h 15.6 q 6.89,0 10.855,-1.69 4.03,-1.755 5.72,-5.72 1.755,-4.03 1.755,-10.92 v -8.84 l -15.6,-0.13 q -2.73,0 -2.73,-2.73 0,-2.73 2.73,-2.73 l 18.33,0.13 q 2.73,0 2.73,2.73 v 11.57 q 0,12.545 -5.59,18.2 Q 565,185 552.39,185 Z" id="path50"/>
    </g>
    <!-- I가 동떨어져 보이지 않게 G 쪽으로 바짝 당김 -->
    <g aria-label="I" id="text23">
      <path d="m 609.43,185 q -1.17,0 -1.95,-0.78 -0.78,-0.78 -0.78,-1.95 v -76.96 q 0,-1.17 0.78,-1.95 0.78,-0.78 1.95,-0.78 1.17,0 1.95,0.78 0.78,0.78 0.78,1.95 v 76.96 q 0,1.17 -0.78,1.95 -0.78,0.78 -1.95,0.78 z" id="path53"/>
    </g>
  </g>
  <!-- 블루 도트: I의 위치(x=595 -> cx=608)에 맞추고 높이를 살짝 낮춤(cy=70 -> cy=76) -->
  <path id="circle27" style="fill:#4a90e2" d="m 614,76 a 6,6 0 0 1 -6,6 6,6 0 0 1 -6,-6 6,6 0 0 1 6,-6 6,6 0 0 1 6,6 z"/>
  <!-- 밸런스 체크용 가이드 (필요시 숨김 처리 가능) -->
  <path id="line29" style="stroke:#0d3a5c;stroke-width:0.3;stroke-dasharray:2, 4" d="M 400,0 V 280"/>
  <g aria-label="SONAGI · HORIZONTAL STENCIL + OPTICAL KERNING" id="text31" style="font-size:8px;font-family:monospace;text-anchor:middle;fill:#1991b9">
    <path d="m 295.58398,262.36719 v 0.80078 q -0.35937,-0.23047 -0.72265,-0.34766 -0.35938,-0.11719 -0.72656,-0.11719 -0.5586,0 -0.88282,0.26172 -0.32422,0.25782 -0.32422,0.69922 0,0.38672 0.21094,0.58985 0.21485,0.20312 0.79688,0.33984 l 0.41406,0.0937 q 0.82031,0.19141 1.19531,0.60156 0.375,0.41016 0.375,1.11719 0,0.83203 -0.51562,1.26953 -0.51563,0.4375 -1.5,0.4375 -0.41016,0 -0.82422,-0.0898 -0.41406,-0.0859 -0.83203,-0.26172 v -0.83985 q 0.44922,0.28516 0.84765,0.41797 0.40235,0.13282 0.8086,0.13282 0.59765,0 0.92968,-0.26563 0.33204,-0.26953 0.33204,-0.75 0,-0.4375 -0.23047,-0.66797 -0.22657,-0.23047 -0.79297,-0.35547 l -0.42188,-0.0976 q -0.8125,-0.1836 -1.17968,-0.55469 -0.36719,-0.37109 -0.36719,-0.99609 0,-0.78125 0.52344,-1.25 0.52734,-0.47266 1.39843,-0.47266 0.33594,0 0.70703,0.0781 0.3711,0.0742 0.78125,0.22657 z" id="path58"/>
    <path d="m 299.98242,265.08984 q 0,-1.28515 -0.26562,-1.83593 -0.26172,-0.55079 -0.86328,-0.55079 -0.59766,0 -0.86329,0.55079 -0.26171,0.55078 -0.26171,1.83593 0,1.28125 0.26171,1.83203 0.26563,0.55079 0.86329,0.55079 0.60156,0 0.86328,-0.54688 0.26562,-0.55078 0.26562,-1.83594 z m 0.82422,0 q 0,1.52344 -0.48437,2.27344 -0.48047,0.75 -1.46875,0.75 -0.98829,0 -1.46875,-0.74609 -0.48047,-0.7461 -0.48047,-2.27735 0,-1.52734 0.48047,-2.27734 0.48437,-0.75 1.46875,-0.75 0.98828,0 1.46875,0.75 0.48437,0.75 0.48437,2.27734 z" id="path60"/>
    <path d="m 301.80664,262.16797 h 1 l 1.96875,4.80078 v -4.80078 h 0.76172 V 268 h -1 l -1.96875,-4.80078 V 268 h -0.76172 z" id="path62"/>
    <path d="m 308.48633,262.86328 -0.83203,2.98438 h 1.66406 z m -0.47656,-0.69531 h 0.95703 L 310.75195,268 h -0.8164 l -0.42969,-1.51953 h -2.04297 L 307.04102,268 h -0.81641 z" id="path64"/>
    <path d="m 315.20898,267.51953 q -0.3164,0.29297 -0.71484,0.44531 -0.39453,0.14844 -0.85547,0.14844 -1.10937,0 -1.72656,-0.79297 -0.61719,-0.79687 -0.61719,-2.23047 0,-1.42968 0.625,-2.22656 0.625,-0.80078 1.73828,-0.80078 0.36719,0 0.70313,0.10547 0.33594,0.10156 0.64844,0.3125 v 0.80859 q -0.31641,-0.30078 -0.64844,-0.4414 -0.33203,-0.14454 -0.70313,-0.14454 -0.76953,0 -1.15625,0.59766 -0.38281,0.59375 -0.38281,1.78906 0,1.21485 0.37109,1.80078 0.375,0.58204 1.14844,0.58204 0.26172,0 0.45703,-0.0586 0.19922,-0.0625 0.35938,-0.1914 v -1.56641 h -0.84766 v -0.64844 h 1.60156 z" id="path66"/>
    <path d="m 316.49805,262.16797 h 3.23828 v 0.66406 h -1.22266 v 4.50391 h 1.22266 V 268 h -3.23828 v -0.66406 h 1.22265 v -4.50391 h -1.22265 z" id="path68"/>
    <path d="m 327.25586,264.625 h 0.98437 v 1.19141 h -0.98437 z" id="path70"/>
    <path d="m 335.51367,262.16797 h 0.79297 v 2.39062 h 2.16016 v -2.39062 h 0.79297 V 268 h -0.79297 v -2.77734 h -2.16016 V 268 h -0.79297 z" id="path72"/>
    <path d="m 343.33008,265.08984 q 0,-1.28515 -0.26563,-1.83593 -0.26172,-0.55079 -0.86328,-0.55079 -0.59765,0 -0.86328,0.55079 -0.26172,0.55078 -0.26172,1.83593 0,1.28125 0.26172,1.83203 0.26563,0.55079 0.86328,0.55079 0.60156,0 0.86328,-0.54688 0.26563,-0.55078 0.26563,-1.83594 z m 0.82422,0 q 0,1.52344 -0.48438,2.27344 -0.48047,0.75 -1.46875,0.75 -0.98828,0 -1.46875,-0.74609 -0.48047,-0.7461 -0.48047,-2.27735 0,-1.52734 0.48047,-2.27734 0.48438,-0.75 1.46875,-0.75 0.98828,0 1.46875,0.75 0.48438,0.75 0.48438,2.27734 z" id="path74"/>
    <path d="m 347.58008,265.24609 q 0.30469,0.0781 0.51953,0.29688 0.21484,0.21484 0.53516,0.86328 L 349.42773,268 h -0.84765 l -0.69531,-1.47266 q -0.30079,-0.6289 -0.54297,-0.80859 -0.23828,-0.18359 -0.625,-0.18359 h -0.75391 V 268 h -0.79297 v -5.83203 h 1.625 q 0.96094,0 1.47266,0.43359 0.51172,0.4336 0.51172,1.25391 0,0.57812 -0.31641,0.94531 -0.3125,0.36328 -0.88281,0.44531 z m -1.61719,-2.42968 v 2.07031 h 0.86328 q 0.56641,0 0.84375,-0.25391 0.27735,-0.2539 0.27735,-0.77734 0,-0.50391 -0.29688,-0.76953 -0.29297,-0.26953 -0.85547,-0.26953 z" id="path76"/>
    <path d="m 350.21289,262.16797 h 3.23828 v 0.66406 h -1.22265 v 4.50391 h 1.22265 V 268 h -3.23828 v -0.66406 h 1.22266 v -4.50391 h -1.22266 z" id="path78"/>
    <path d="m 354.93945,262.16797 h 3.78516 v 0.60156 l -3.04688,4.56641 h 3.13282 V 268 h -3.95703 v -0.60156 l 2.96484,-4.56641 h -2.87891 z" id="path80"/>
    <path d="m 362.5957,265.08984 q 0,-1.28515 -0.26562,-1.83593 -0.26172,-0.55079 -0.86328,-0.55079 -0.59766,0 -0.86328,0.55079 -0.26172,0.55078 -0.26172,1.83593 0,1.28125 0.26172,1.83203 0.26562,0.55079 0.86328,0.55079 0.60156,0 0.86328,-0.54688 0.26562,-0.55078 0.26562,-1.83594 z m 0.82422,0 q 0,1.52344 -0.48437,2.27344 -0.48047,0.75 -1.46875,0.75 -0.98828,0 -1.46875,-0.74609 -0.48047,-0.7461 -0.48047,-2.27735 0,-1.52734 0.48047,-2.27734 0.48437,-0.75 1.46875,-0.75 0.98828,0 1.46875,0.75 0.48437,0.75 0.48437,2.27734 z" id="path82"/>
    <path d="m 364.41992,262.16797 h 1 l 1.96875,4.80078 v -4.80078 h 0.76172 V 268 h -1 l -1.96875,-4.80078 V 268 h -0.76172 z" id="path84"/>
    <path d="m 368.87695,262.16797 h 4.44922 v 0.66406 h -1.82422 V 268 h -0.79297 v -5.16797 h -1.83203 z" id="path86"/>
    <path d="m 375.91602,262.86328 -0.83204,2.98438 h 1.66407 z m -0.47657,-0.69531 h 0.95703 L 378.18164,268 h -0.81641 l -0.42968,-1.51953 h -2.04297 L 374.4707,268 h -0.8164 z" id="path88"/>
    <path d="m 379.16602,262.16797 h 0.79296 v 5.16797 h 2.81641 V 268 h -3.60937 z" id="path90"/>
    <path d="m 391.91211,262.36719 v 0.80078 q -0.35938,-0.23047 -0.72266,-0.34766 -0.35937,-0.11719 -0.72656,-0.11719 -0.55859,0 -0.88281,0.26172 -0.32422,0.25782 -0.32422,0.69922 0,0.38672 0.21094,0.58985 0.21484,0.20312 0.79687,0.33984 l 0.41406,0.0937 q 0.82032,0.19141 1.19532,0.60156 0.375,0.41016 0.375,1.11719 0,0.83203 -0.51563,1.26953 -0.51562,0.4375 -1.5,0.4375 -0.41015,0 -0.82422,-0.0898 -0.41406,-0.0859 -0.83203,-0.26172 v -0.83985 q 0.44922,0.28516 0.84766,0.41797 0.40234,0.13282 0.80859,0.13282 0.59766,0 0.92969,-0.26563 0.33203,-0.26953 0.33203,-0.75 0,-0.4375 -0.23047,-0.66797 -0.22656,-0.23047 -0.79297,-0.35547 l -0.42187,-0.0976 q -0.8125,-0.1836 -1.17969,-0.55469 -0.36719,-0.37109 -0.36719,-0.99609 0,-0.78125 0.52344,-1.25 0.52734,-0.47266 1.39844,-0.47266 0.33594,0 0.70703,0.0781 0.37109,0.0742 0.78125,0.22657 z" id="path92"/>
    <path d="m 392.95898,262.16797 h 4.44922 v 0.66406 h -1.82422 V 268 h -0.79296 v -5.16797 h -1.83204 z" id="path94"/>
    <path d="m 398.36133,262.16797 h 3.46094 v 0.66406 h -2.67188 v 1.72656 h 2.55469 v 0.66407 h -2.55469 v 2.11328 h 2.74609 V 268 h -3.53515 z" id="path96"/>
    <path d="m 402.95117,262.16797 h 1 l 1.96875,4.80078 v -4.80078 h 0.76172 V 268 h -1 l -1.96875,-4.80078 V 268 h -0.76172 z" id="path98"/>
    <path d="m 411.41602,267.79297 q -0.30079,0.16015 -0.61719,0.23828 -0.31641,0.082 -0.67188,0.082 -1.12109,0 -1.74218,-0.79297 -0.61719,-0.79297 -0.61719,-2.23047 0,-1.42968 0.62109,-2.22656 0.625,-0.80078 1.73828,-0.80078 0.35547,0 0.67188,0.082 0.3164,0.0781 0.61719,0.23828 v 0.8086 q -0.28907,-0.23829 -0.6211,-0.36329 -0.33203,-0.125 -0.66797,-0.125 -0.76953,0 -1.15234,0.59375 -0.38281,0.59375 -0.38281,1.79297 0,1.19532 0.38281,1.78907 0.38281,0.59375 1.15234,0.59375 0.34375,0 0.67188,-0.125 0.33203,-0.125 0.61719,-0.36329 z" id="path100"/>
    <path d="m 412.82617,262.16797 h 3.23828 v 0.66406 h -1.22265 v 4.50391 h 1.22265 V 268 h -3.23828 v -0.66406 h 1.22266 v -4.50391 h -1.22266 z" id="path102"/>
    <path d="m 417.69727,262.16797 h 0.79296 v 5.16797 h 2.81641 V 268 h -3.60937 z" id="path104"/>
    <path d="m 429.22461,263.42578 v 1.73438 h 1.73828 v 0.66406 h -1.73828 v 1.73437 h -0.65625 v -1.73437 h -1.73438 v -0.66406 h 1.73438 v -1.73438 z" id="path106"/>
    <path d="m 439.6582,265.08984 q 0,-1.28515 -0.26562,-1.83593 -0.26172,-0.55079 -0.86328,-0.55079 -0.59766,0 -0.86328,0.55079 -0.26172,0.55078 -0.26172,1.83593 0,1.28125 0.26172,1.83203 0.26562,0.55079 0.86328,0.55079 0.60156,0 0.86328,-0.54688 0.26562,-0.55078 0.26562,-1.83594 z m 0.82422,0 q 0,1.52344 -0.48437,2.27344 -0.48047,0.75 -1.46875,0.75 -0.98828,0 -1.46875,-0.74609 -0.48047,-0.7461 -0.48047,-2.27735 0,-1.52734 0.48047,-2.27734 0.48437,-0.75 1.46875,-0.75 0.98828,0 1.46875,0.75 0.48437,0.75 0.48437,2.27734 z" id="path108"/>
    <path d="m 442.49805,262.81641 v 2.1914 h 0.91406 q 0.54687,0 0.85156,-0.28906 0.3086,-0.28906 0.3086,-0.80859 0,-0.51954 -0.30469,-0.80469 -0.30469,-0.28906 -0.85547,-0.28906 z m -0.78907,-0.64844 h 1.70313 q 0.97656,0 1.48047,0.44531 0.5039,0.44141 0.5039,1.29688 0,0.86328 -0.5039,1.30468 -0.5,0.44141 -1.48047,0.44141 h -0.91406 V 268 h -0.78907 z" id="path110"/>
    <path d="m 445.93945,262.16797 h 4.44922 v 0.66406 h -1.82422 V 268 h -0.79297 v -5.16797 h -1.83203 z" id="path112"/>
    <path d="m 451.35742,262.16797 h 3.23828 v 0.66406 h -1.22265 v 4.50391 h 1.22265 V 268 h -3.23828 v -0.66406 h 1.22266 v -4.50391 h -1.22266 z" id="path114"/>
    <path d="m 459.58008,267.79297 q -0.30078,0.16015 -0.61719,0.23828 -0.31641,0.082 -0.67187,0.082 -1.1211,0 -1.74219,-0.79297 -0.61719,-0.79297 -0.61719,-2.23047 0,-1.42968 0.62109,-2.22656 0.625,-0.80078 1.73829,-0.80078 0.35546,0 0.67187,0.082 0.31641,0.0781 0.61719,0.23828 v 0.8086 q -0.28906,-0.23829 -0.6211,-0.36329 -0.33203,-0.125 -0.66796,-0.125 -0.76954,0 -1.15235,0.59375 -0.38281,0.59375 -0.38281,1.79297 0,1.19532 0.38281,1.78907 0.38281,0.59375 1.15235,0.59375 0.34375,0 0.67187,-0.125 0.33203,-0.125 0.61719,-0.36329 z" id="path116"/>
    <path d="m 462.61133,262.86328 -0.83203,2.98438 h 1.66406 z m -0.47656,-0.69531 h 0.95703 L 464.87695,268 h -0.8164 l -0.42969,-1.51953 h -2.04297 L 461.16602,268 h -0.81641 z" id="path118"/>
    <path d="m 465.86133,262.16797 h 0.79297 v 5.16797 h 2.8164 V 268 h -3.60937 z" id="path120"/>
    <path d="m 475.18945,262.16797 h 0.79297 v 2.59375 l 2.46485,-2.59375 h 0.92578 l -2.26953,2.38281 2.33593,3.44922 h -0.95312 l -1.90235,-2.92188 -0.60156,0.64063 V 268 h -0.79297 z" id="path122"/>
    <path d="m 480.24023,262.16797 h 3.46094 v 0.66406 h -2.67187 v 1.72656 h 2.55468 v 0.66407 h -2.55468 v 2.11328 h 2.74609 V 268 h -3.53516 z" id="path124"/>
    <path d="m 487.25586,265.24609 q 0.30469,0.0781 0.51953,0.29688 0.21484,0.21484 0.53516,0.86328 L 489.10352,268 h -0.84766 l -0.69531,-1.47266 q -0.30078,-0.6289 -0.54297,-0.80859 -0.23828,-0.18359 -0.625,-0.18359 h -0.75391 V 268 h -0.79297 v -5.83203 h 1.625 q 0.96094,0 1.47266,0.43359 0.51172,0.4336 0.51172,1.25391 0,0.57812 -0.31641,0.94531 -0.3125,0.36328 -0.88281,0.44531 z m -1.61719,-2.42968 v 2.07031 h 0.86328 q 0.56641,0 0.84375,-0.25391 0.27735,-0.2539 0.27735,-0.77734 0,-0.50391 -0.29688,-0.76953 -0.29297,-0.26953 -0.85547,-0.26953 z" id="path126"/>
    <path d="m 489.64648,262.16797 h 1 l 1.96875,4.80078 v -4.80078 h 0.76172 V 268 h -1 l -1.96875,-4.80078 V 268 h -0.76172 z" id="path128"/>
    <path d="m 494.70508,262.16797 h 3.23828 v 0.66406 h -1.22266 v 4.50391 h 1.22266 V 268 h -3.23828 v -0.66406 h 1.22265 v -4.50391 h -1.22265 z" id="path130"/>
    <path d="m 499.2793,262.16797 h 1 l 1.96875,4.80078 v -4.80078 h 0.76172 V 268 h -1 l -1.96875,-4.80078 V 268 h -0.76172 z" id="path132"/>
    <path d="m 507.86523,267.51953 q -0.3164,0.29297 -0.71484,0.44531 -0.39453,0.14844 -0.85547,0.14844 -1.10937,0 -1.72656,-0.79297 -0.61719,-0.79687 -0.61719,-2.23047 0,-1.42968 0.625,-2.22656 0.625,-0.80078 1.73828,-0.80078 0.36719,0 0.70313,0.10547 0.33594,0.10156 0.64844,0.3125 v 0.80859 q -0.31641,-0.30078 -0.64844,-0.4414 -0.33203,-0.14454 -0.70313,-0.14454 -0.76953,0 -1.15625,0.59766 -0.38281,0.59375 -0.38281,1.78906 0,1.21485 0.37109,1.80078 0.375,0.58204 1.14844,0.58204 0.26172,0 0.45703,-0.0586 0.19922,-0.0625 0.35938,-0.1914 v -1.56641 h -0.84766 v -0.64844 h 1.60156 z" id="path134"/>
  </g>
</svg>
