<?xml version='1.0' encoding='utf-8'?>
<svg xmlns="http://www.w3.org/2000/svg" width="800" height="280" viewBox="0 0 800 280" version="1.1" id="svg33">
  <defs id="defs9">
    <mask id="final-stencil-mask">
      </mask>
  </defs>
  <path id="rect11" style="fill:#030508" d="M 0,0 H 800 V 280 H 0 Z" />
  
  <g font-family="JuraLight" font-size="130" fill="currentColor" mask="url(#final-stencil-mask)" id="g25">
    <g aria-label="S" id="text13">
      <path d="m 193.02,184.87 q -11.765,0 -17.225,-5.395 -5.395,-5.395 -5.395,-17.095 0,-1.17 0.78,-1.95 0.78,-0.78 1.95,-0.78 1.17,0 1.95,0.78 0.78,0.78 0.78,1.95 0,9.425 3.77,13.26 3.835,3.77 13.39,3.77 h 18.72 q 9.555,0 13.325,-3.77 3.835,-3.835 3.835,-13.26 0,-9.49 -3.835,-13.26 -3.77,-3.77 -13.325,-3.77 h -18.33 q -11.18,0 -16.315,-5.07 -5.135,-5.135 -5.135,-16.25 0,-11.115 5.07,-16.185 5.135,-5.135 16.25,-5.135 h 19.11 q 11.115,0 16.185,5.07 5.135,5.07 5.135,16.12 0,1.17 -0.78,1.95 -0.78,0.78 -1.95,0.78 -1.17,0 -1.95,-0.78 -0.78,-0.78 -0.78,-1.95 0,-8.71 -3.575,-12.22 -3.51,-3.51 -12.285,-3.51 h -19.11 q -8.775,0 -12.35,3.575 -3.51,3.51 -3.51,12.285 0,8.775 3.575,12.35 3.575,3.51 12.415,3.51 h 18.33 q 11.83,0 17.225,5.395 5.395,5.395 5.395,17.095 0,11.7 -5.395,17.095 -5.395,5.395 -17.225,5.395 z" id="path38" />
    </g>
    <g aria-label="O" id="text15">
      <path d="m 276.79,185 q -13.845,0 -20.15,-6.24 -6.24,-6.305 -6.24,-20.15 V 129.1 q 0,-13.975 6.24,-20.215 6.305,-6.305 20.02,-6.175 h 15.73 q 13.845,0 20.085,6.305 6.305,6.24 6.305,20.085 v 29.51 q 0,13.845 -6.305,20.15 -6.24,6.24 -20.085,6.24 z m 0,-5.46 h 15.6 q 7.67,0 12.22,-2.015 4.615,-2.08 6.63,-6.63 2.08,-4.615 2.08,-12.285 V 129.1 q 0,-7.67 -2.08,-12.22 -2.015,-4.615 -6.63,-6.63 -4.55,-2.08 -12.22,-2.08 h -15.73 q -7.67,-0.065 -12.22,1.95 -4.55,2.015 -6.565,6.63 -2.015,4.615 -2.015,12.35 v 29.51 q 0,7.67 2.015,12.285 2.08,4.55 6.63,6.63 4.615,2.015 12.285,2.015 z" id="path41" />
    </g>
    
    <g aria-label="N" id="text17">
      <path d="m 344.43,185 q -2.73,0 -2.73,-2.73 v -76.83 q 0,-2.73 2.73,-2.73 1.495,0 2.86,1.56 l 56.03,71.89 h -1.17 v -70.72 q 0,-2.73 2.73,-2.73 2.73,0 2.73,2.73 v 76.83 q 0,2.73 -2.73,2.73 -1.495,0 -2.86,-1.56 l -56.03,-71.89 h 1.17 v 70.72 q 0,2.73 -2.73,2.73 z" id="path44" />
    </g>
    
    <g aria-label="A" id="text19">
      <path d="m 419.29,184.74 q -2.405,-1.17 -1.43,-3.64 l 32.63,-76.31 q 0.78,-2.08 3.12,-2.08 H 454 q 2.145,0 3.12,2.08 l 32.5,76.31 q 1.105,2.47 -1.43,3.64 -2.47,1.04 -3.51,-1.43 l -9.165,-21.58 h -43.29 l -9.295,21.58 q -1.04,2.47 -3.64,1.43 z m 15.275,-28.47 h 38.61 L 454,111.29 Z" id="path47" />
    </g>
    
    <g aria-label="G" id="text21">
      <path d="m 536.79,185 q -13.845,0 -20.15,-6.24 -6.24,-6.305 -6.24,-20.15 V 129.1 q 0,-13.975 6.24,-20.15 6.305,-6.24 20.02,-6.24 h 15.73 q 11.895,0 17.55,4.94 5.655,4.94 6.11,15.99 0.13,1.365 -0.585,2.145 -0.65,0.715 -2.015,0.715 -2.665,0 -2.86,-2.73 -0.39,-8.775 -4.55,-12.155 -4.095,-3.445 -13.65,-3.445 h -15.73 q -7.67,0 -12.22,2.015 -4.55,2.015 -6.565,6.63 -2.015,4.55 -2.015,12.285 v 29.51 q 0,7.67 2.015,12.285 2.08,4.55 6.63,6.63 4.615,2.015 12.285,2.015 h 15.6 q 6.89,0 10.855,-1.69 4.03,-1.755 5.72,-5.72 1.755,-4.03 1.755,-10.92 v -8.84 l -15.6,-0.13 q -2.73,0 -2.73,-2.73 0,-2.73 2.73,-2.73 l 18.33,0.13 q 2.73,0 2.73,2.73 v 11.57 q 0,12.545 -5.59,18.2 Q 565,185 552.39,185 Z" id="path50" />
    </g>
    
    <g aria-label="I" id="text23">
      <path d="m 609.43,185 q -1.17,0 -1.95,-0.78 -0.78,-0.78 -0.78,-1.95 v -76.96 q 0,-1.17 0.78,-1.95 0.78,-0.78 1.95,-0.78 1.17,0 1.95,0.78 0.78,0.78 0.78,1.95 v 76.96 q 0,1.17 -0.78,1.95 -0.78,0.78 -1.95,0.78 z" id="path53" />
    </g>
  </g>
  
  <path id="circle27" style="fill:#4a90e2" d="m 614,76 a 6,6 0 0 1 -6,6 6,6 0 0 1 -6,-6 6,6 0 0 1 6,-6 6,6 0 0 1 6,6 z" />
  
  <path id="line29" style="stroke:#0d3a5c;stroke-width:0.3;stroke-dasharray:2, 4" d="M 400,0 V 280" />
  </svg>