<?xml version='1.0' encoding='UTF-8'?>
<svg xmlns="http://www.w3.org/2000/svg" xmlns:svg="http://www.w3.org/2000/svg" width="1000" height="400" viewBox="0 0 1000 400" version="1.1" id="svg43">
  <defs id="defs9">
    <mask id="final-en-stencil">
      <rect width="1000" height="400" fill="white" id="rect4"/>
      <rect x="0" y="166" width="1000" height="3" fill="black" id="rect6"/>
    </mask>
  </defs>
  <path id="rect11" style="fill:#030508" d="M 0,0 H 1000 V 400 H 0 Z"/>
  <!-- 가이드라인 (희미하게) -->
  <path id="line15" style="stroke:#1a2a3a;stroke-width:0.5;stroke-dasharray:2, 4" d="M 500,80 V 350"/>
  <!-- ========================================== -->
  <!-- 1. 영문 워드마크 (수평 스텐실 + 상단 도트) -->
  <!-- ========================================== -->
  <g font-family="JuraLight" font-size="90" fill="#ffffff" mask="url(#final-en-stencil)" id="g29">
    <g aria-label="S" id="text17">
      <path d="m 122.86,199.91 q -8.145,0 -11.925,-3.735 -3.735,-3.735 -3.735,-11.835 0,-0.81 0.54,-1.35 0.54,-0.54 1.35,-0.54 0.81,0 1.35,0.54 0.54,0.54 0.54,1.35 0,6.525 2.61,9.18 2.655,2.61 9.27,2.61 h 12.96 q 6.615,0 9.225,-2.61 2.655,-2.655 2.655,-9.18 0,-6.57 -2.655,-9.18 -2.61,-2.61 -9.225,-2.61 h -12.69 q -7.74,0 -11.295,-3.51 -3.555,-3.555 -3.555,-11.25 0,-7.695 3.51,-11.205 3.555,-3.555 11.25,-3.555 h 13.23 q 7.695,0 11.205,3.51 3.555,3.51 3.555,11.16 0,0.81 -0.54,1.35 -0.54,0.54 -1.35,0.54 -0.81,0 -1.35,-0.54 -0.54,-0.54 -0.54,-1.35 0,-6.03 -2.475,-8.46 -2.43,-2.43 -8.505,-2.43 h -13.23 q -6.075,0 -8.55,2.475 -2.43,2.43 -2.43,8.505 0,6.075 2.475,8.55 2.475,2.43 8.595,2.43 h 12.69 q 8.19,0 11.925,3.735 3.735,3.735 3.735,11.835 0,8.1 -3.735,11.835 -3.735,3.735 -11.925,3.735 z" id="path98"/>
    </g>
    <g aria-label="O" id="text19">
      <path d="m 180.47,200 q -9.585,0 -13.95,-4.32 -4.32,-4.365 -4.32,-13.95 V 161.3 q 0,-9.675 4.32,-13.995 4.365,-4.365 13.86,-4.275 h 10.89 q 9.585,0 13.905,4.365 4.365,4.32 4.365,13.905 v 20.43 q 0,9.585 -4.365,13.95 -4.32,4.32 -13.905,4.32 z m 0,-3.78 h 10.8 q 5.31,0 8.46,-1.395 3.195,-1.44 4.59,-4.59 1.44,-3.195 1.44,-8.505 V 161.3 q 0,-5.31 -1.44,-8.46 -1.395,-3.195 -4.59,-4.59 -3.15,-1.44 -8.46,-1.44 h -10.89 q -5.31,-0.045 -8.46,1.35 -3.15,1.395 -4.545,4.59 -1.395,3.195 -1.395,8.55 v 20.43 q 0,5.31 1.395,8.505 1.44,3.15 4.59,4.59 3.195,1.395 8.505,1.395 z" id="path101"/>
    </g>
    <g aria-label="N" id="text21">
      <path d="m 229.99,200 q -1.89,0 -1.89,-1.89 v -53.19 q 0,-1.89 1.89,-1.89 1.035,0 1.98,1.08 l 38.79,49.77 h -0.81 v -48.96 q 0,-1.89 1.89,-1.89 1.89,0 1.89,1.89 v 53.19 q 0,1.89 -1.89,1.89 -1.035,0 -1.98,-1.08 l -38.79,-49.77 h 0.81 v 48.96 q 0,1.89 -1.89,1.89 z" id="path104"/>
    </g>
    <g aria-label="A" id="text23">
      <path d="m 282.97,199.82 q -1.665,-0.81 -0.99,-2.52 l 22.59,-52.83 q 0.54,-1.44 2.16,-1.44 H 307 q 1.485,0 2.16,1.44 l 22.5,52.83 q 0.765,1.71 -0.99,2.52 -1.71,0.72 -2.43,-0.99 l -6.345,-14.94 h -29.97 l -6.435,14.94 q -0.72,1.71 -2.52,0.99 z m 10.575,-19.71 h 26.73 L 307,148.97 Z" id="path107"/>
    </g>
    <g aria-label="G" id="text25">
      <path d="m 365.47,200 q -9.585,0 -13.95,-4.32 -4.32,-4.365 -4.32,-13.95 V 161.3 q 0,-9.675 4.32,-13.95 4.365,-4.32 13.86,-4.32 h 10.89 q 8.235,0 12.15,3.42 3.915,3.42 4.23,11.07 0.09,0.945 -0.405,1.485 -0.45,0.495 -1.395,0.495 -1.845,0 -1.98,-1.89 -0.27,-6.075 -3.15,-8.415 -2.835,-2.385 -9.45,-2.385 h -10.89 q -5.31,0 -8.46,1.395 -3.15,1.395 -4.545,4.59 -1.395,3.15 -1.395,8.505 v 20.43 q 0,5.31 1.395,8.505 1.44,3.15 4.59,4.59 3.195,1.395 8.505,1.395 h 10.8 q 4.77,0 7.515,-1.17 2.79,-1.215 3.96,-3.96 1.215,-2.79 1.215,-7.56 v -6.12 l -10.8,-0.09 q -1.89,0 -1.89,-1.89 0,-1.89 1.89,-1.89 l 12.69,0.09 q 1.89,0 1.89,1.89 v 8.01 q 0,8.685 -3.87,12.6 Q 385,200 376.27,200 Z" id="path110"/>
    </g>
    <g aria-label="I" id="text27">
      <path d="m 414.99,200 q -0.81,0 -1.35,-0.54 -0.54,-0.54 -0.54,-1.35 v -53.28 q 0,-0.81 0.54,-1.35 0.54,-0.54 1.35,-0.54 0.81,0 1.35,0.54 0.54,0.54 0.54,1.35 v 53.28 q 0,0.81 -0.54,1.35 -0.54,0.54 -1.35,0.54 z" id="path113"/>
    </g>
  </g>
  <!-- 영문: I 상단 도트 -->
  <path id="circle31" style="fill:#4a90e2" d="m 419.5,120 a 4.5,4.5 0 0 1 -4.5,4.5 4.5,4.5 0 0 1 -4.5,-4.5 4.5,4.5 0 0 1 4.5,-4.5 4.5,4.5 0 0 1 4.5,4.5 z"/>
  <!-- ========================================== -->
  <!-- 2. 한글 워드마크 (순정 폰트 + 마침표 도트) -->
  <!-- ========================================== -->
  <g font-family="DesignhouseLight" font-size="90" fill="#ffffff" id="g39">
    <!-- 자간을 시각적으로 단단하게 조절 -->
    <g aria-label="소" id="text33">
      <path d="m 601.98,167.24 h 30.6 v -12.06 h 3.69 v 12.06 h 30.51 v 3.51 h -64.8 z m 30.51,-30.78 V 124.4 h 3.78 v 12.06 l 18.09,15.03 -2.25,2.61 -17.73,-14.31 -17.73,14.31 -2.25,-2.61 z" id="path117"/>
    </g>
    <g aria-label="나" id="text35">
      <path d="m 752.29,129.8 -7.83,-4.59 1.44,-2.7 10.08,5.22 v 20.52 h 13.32 v 3.51 h -13.32 v 20.7 h -3.69 z m -44.01,9.18 h 3.69 v 28.26 h 26.46 v 3.51 h -30.15 z" id="path120"/>
    </g>
    <g aria-label="기" id="text37">
      <path d="m 833.75,170.75 h -3.69 V 143.21 H 805.4 v -3.6 h 28.35 z m 21.15,-40.95 -7.74,-4.59 1.44,-2.7 10.08,5.22 v 44.73 h -3.78 z" id="path123"/>
    </g>
  </g>
  <!-- 한글: 우하단 마침표 도트 -->
  <!-- '기' 글자의 베이스라인 근처 우측에 배치 -->
  <path id="circle41" style="fill:#4a90e2" d="m 899.5,195 a 4.5,4.5 0 0 1 -4.5,4.5 4.5,4.5 0 0 1 -4.5,-4.5 4.5,4.5 0 0 1 4.5,-4.5 4.5,4.5 0 0 1 4.5,4.5 z"/>
</svg>
