<?xml version='1.0' encoding='UTF-8'?>
<svg xmlns="http://www.w3.org/2000/svg" xmlns:svg="http://www.w3.org/2000/svg" width="800" height="280" viewBox="0 0 800 280" version="1.1" id="svg20">
  <defs id="defs4">
    </defs>
  <path id="rect6" style="fill:#030508" d="M 0,0 H 800 V 280 H 0 Z"/>
  <!-- === WORDMARK LAYER (Pure + Optical Kerning) === -->
  <g font-family="DesignhouseLight" font-size="130" fill="#ffffff" id="g14">
    <!-- 시각적 자간 교정: 한글은 네모 박스 단위이므로 생각보다 바짝 당겨야 응집력이 생깁니다. -->
    <g aria-label="소" id="text8">
      <path d="m 212.86,137.68 h 44.2 v -17.42 h 5.33 v 17.42 h 44.07 v 5.07 h -93.6 z M 256.93,93.22 V 75.8 h 5.46 v 17.42 l 26.13,21.71 -3.25,3.77 -25.61,-20.67 -25.61,20.67 -3.25,-3.77 z" id="path25"/>
    </g>
    <g aria-label="나" id="text10">
      <path d="m 425.53,83.6 -11.31,-6.63 2.08,-3.9 14.56,7.54 v 29.64 h 19.24 v 5.07 h -19.24 v 29.9 h -5.33 z m -63.57,13.26 h 5.33 v 40.82 h 38.22 v 5.07 h -43.55 z" id="path28"/>
    </g>
    <g aria-label="기" id="text12">
      <path d="m 538.75,142.75 h -5.33 V 102.97 H 497.8 v -5.2 h 40.95 z m 30.55,-59.15 -11.18,-6.63 2.08,-3.9 14.56,7.54 v 64.61 h -5.46 z" id="path31"/>
    </g>
  </g>
  <!-- 블루 도트 (단비 메타포) -->
  <!-- '기'의 'ㅣ' 모음(대략 x=580 부근) 연장선 상단에 배치 -->
  <path id="circle16" style="fill:#4a90e2" d="m 588,70 a 6,6 0 0 1 -6,6 6,6 0 0 1 -6,-6 6,6 0 0 1 6,-6 6,6 0 0 1 6,6 z"/>
  <g aria-label="SONAGI KOR · PURE DESIGNHOUSE LIGHT + BLUE DOT" id="text18" style="font-size:8px;font-family:monospace;text-anchor:middle;fill:#555555">
    <path d="m 293.17578,262.36719 v 0.80078 q -0.35937,-0.23047 -0.72266,-0.34766 -0.35937,-0.11719 -0.72656,-0.11719 -0.55859,0 -0.88281,0.26172 -0.32422,0.25782 -0.32422,0.69922 0,0.38672 0.21094,0.58985 0.21484,0.20312 0.79687,0.33984 l 0.41407,0.0937 q 0.82031,0.19141 1.19531,0.60156 0.375,0.41016 0.375,1.11719 0,0.83203 -0.51563,1.26953 -0.51562,0.4375 -1.5,0.4375 -0.41015,0 -0.82422,-0.0898 -0.41406,-0.0859 -0.83203,-0.26172 v -0.83985 q 0.44922,0.28516 0.84766,0.41797 0.40234,0.13282 0.80859,0.13282 0.59766,0 0.92969,-0.26563 0.33203,-0.26953 0.33203,-0.75 0,-0.4375 -0.23047,-0.66797 -0.22656,-0.23047 -0.79297,-0.35547 l -0.42187,-0.0976 q -0.8125,-0.1836 -1.17969,-0.55469 -0.36719,-0.37109 -0.36719,-0.99609 0,-0.78125 0.52344,-1.25 0.52735,-0.47266 1.39844,-0.47266 0.33594,0 0.70703,0.0781 0.37109,0.0742 0.78125,0.22657 z" id="path35"/>
    <path d="m 297.57422,265.08984 q 0,-1.28515 -0.26563,-1.83593 -0.26172,-0.55079 -0.86328,-0.55079 -0.59765,0 -0.86328,0.55079 -0.26172,0.55078 -0.26172,1.83593 0,1.28125 0.26172,1.83203 0.26563,0.55079 0.86328,0.55079 0.60156,0 0.86328,-0.54688 0.26563,-0.55078 0.26563,-1.83594 z m 0.82422,0 q 0,1.52344 -0.48438,2.27344 -0.48047,0.75 -1.46875,0.75 -0.98828,0 -1.46875,-0.74609 -0.48047,-0.7461 -0.48047,-2.27735 0,-1.52734 0.48047,-2.27734 0.48438,-0.75 1.46875,-0.75 0.98828,0 1.46875,0.75 0.48438,0.75 0.48438,2.27734 z" id="path37"/>
    <path d="m 299.39844,262.16797 h 1 l 1.96875,4.80078 v -4.80078 h 0.76172 V 268 h -1 l -1.96875,-4.80078 V 268 h -0.76172 z" id="path39"/>
    <path d="m 306.07812,262.86328 -0.83203,2.98438 h 1.66407 z m -0.47656,-0.69531 h 0.95703 L 308.34375,268 h -0.81641 l -0.42968,-1.51953 h -2.04297 L 304.63281,268 h -0.8164 z" id="path41"/>
    <path d="m 312.80078,267.51953 q -0.31641,0.29297 -0.71484,0.44531 -0.39453,0.14844 -0.85547,0.14844 -1.10938,0 -1.72656,-0.79297 -0.61719,-0.79687 -0.61719,-2.23047 0,-1.42968 0.625,-2.22656 0.625,-0.80078 1.73828,-0.80078 0.36719,0 0.70312,0.10547 0.33594,0.10156 0.64844,0.3125 v 0.80859 q -0.3164,-0.30078 -0.64844,-0.4414 -0.33203,-0.14454 -0.70312,-0.14454 -0.76953,0 -1.15625,0.59766 -0.38281,0.59375 -0.38281,1.78906 0,1.21485 0.37109,1.80078 0.375,0.58204 1.14844,0.58204 0.26172,0 0.45703,-0.0586 0.19922,-0.0625 0.35937,-0.1914 v -1.56641 h -0.84765 v -0.64844 h 1.60156 z" id="path43"/>
    <path d="m 314.08984,262.16797 h 3.23828 v 0.66406 h -1.22265 v 4.50391 h 1.22265 V 268 h -3.23828 v -0.66406 h 1.22266 v -4.50391 h -1.22266 z" id="path45"/>
    <path d="m 323.47266,262.16797 h 0.79296 v 2.59375 l 2.46485,-2.59375 h 0.92578 l -2.26953,2.38281 2.33594,3.44922 h -0.95313 l -1.90234,-2.92188 -0.60157,0.64063 V 268 h -0.79296 z" id="path47"/>
    <path d="m 331.28906,265.08984 q 0,-1.28515 -0.26562,-1.83593 -0.26172,-0.55079 -0.86328,-0.55079 -0.59766,0 -0.86329,0.55079 -0.26171,0.55078 -0.26171,1.83593 0,1.28125 0.26171,1.83203 0.26563,0.55079 0.86329,0.55079 0.60156,0 0.86328,-0.54688 0.26562,-0.55078 0.26562,-1.83594 z m 0.82422,0 q 0,1.52344 -0.48437,2.27344 -0.48047,0.75 -1.46875,0.75 -0.98829,0 -1.46875,-0.74609 -0.48047,-0.7461 -0.48047,-2.27735 0,-1.52734 0.48047,-2.27734 0.48437,-0.75 1.46875,-0.75 0.98828,0 1.46875,0.75 0.48437,0.75 0.48437,2.27734 z" id="path49"/>
    <path d="m 335.53906,265.24609 q 0.30469,0.0781 0.51953,0.29688 0.21485,0.21484 0.53516,0.86328 L 337.38672,268 h -0.84766 l -0.69531,-1.47266 q -0.30078,-0.6289 -0.54297,-0.80859 -0.23828,-0.18359 -0.625,-0.18359 h -0.75391 V 268 h -0.79296 v -5.83203 h 1.625 q 0.96093,0 1.47265,0.43359 0.51172,0.4336 0.51172,1.25391 0,0.57812 -0.31641,0.94531 -0.3125,0.36328 -0.88281,0.44531 z m -1.61719,-2.42968 v 2.07031 h 0.86329 q 0.5664,0 0.84375,-0.25391 0.27734,-0.2539 0.27734,-0.77734 0,-0.50391 -0.29688,-0.76953 -0.29296,-0.26953 -0.85546,-0.26953 z" id="path51"/>
    <path d="m 344.11328,264.625 h 0.98438 v 1.19141 h -0.98438 z" id="path53"/>
    <path d="m 353.39453,262.81641 v 2.1914 h 0.91406 q 0.54688,0 0.85157,-0.28906 0.30859,-0.28906 0.30859,-0.80859 0,-0.51954 -0.30469,-0.80469 -0.30469,-0.28906 -0.85547,-0.28906 z m -0.78906,-0.64844 h 1.70312 q 0.97657,0 1.48047,0.44531 0.50391,0.44141 0.50391,1.29688 0,0.86328 -0.50391,1.30468 -0.5,0.44141 -1.48047,0.44141 h -0.91406 V 268 h -0.78906 z" id="path55"/>
    <path d="m 357.22656,265.76172 v -3.59375 h 0.79297 v 3.95312 q 0,0.42578 0.0234,0.60938 0.0234,0.17969 0.082,0.27734 0.125,0.23047 0.35937,0.34766 0.23829,0.11719 0.57422,0.11719 0.33985,0 0.57422,-0.11719 0.23438,-0.11719 0.36328,-0.34766 0.0586,-0.0976 0.082,-0.27734 0.0234,-0.17969 0.0234,-0.60156 v -3.96094 h 0.78906 v 3.59375 q 0,0.89453 -0.11328,1.27344 -0.10937,0.375 -0.38281,0.62109 -0.25781,0.23047 -0.58984,0.34375 -0.33203,0.11328 -0.7461,0.11328 -0.41015,0 -0.74218,-0.11328 -0.33204,-0.11328 -0.59375,-0.34375 -0.26954,-0.24219 -0.38282,-0.625 -0.11328,-0.38672 -0.11328,-1.26953 z" id="path57"/>
    <path d="m 364.4375,265.24609 q 0.30469,0.0781 0.51953,0.29688 0.21484,0.21484 0.53516,0.86328 L 366.28516,268 h -0.84766 l -0.69531,-1.47266 q -0.30078,-0.6289 -0.54297,-0.80859 -0.23828,-0.18359 -0.625,-0.18359 h -0.75391 V 268 h -0.79297 v -5.83203 h 1.625 q 0.96094,0 1.47266,0.43359 0.51172,0.4336 0.51172,1.25391 0,0.57812 -0.31641,0.94531 -0.3125,0.36328 -0.88281,0.44531 z m -1.61719,-2.42968 v 2.07031 h 0.86328 q 0.56641,0 0.84375,-0.25391 0.27735,-0.2539 0.27735,-0.77734 0,-0.50391 -0.29688,-0.76953 -0.29297,-0.26953 -0.85547,-0.26953 z" id="path59"/>
    <path d="m 367.05469,262.16797 h 3.46093 v 0.66406 h -2.67187 v 1.72656 h 2.55469 v 0.66407 h -2.55469 v 2.11328 h 2.74609 V 268 h -3.53515 z" id="path61"/>
    <path d="m 377.62109,267.35156 q 0.9961,0 1.39063,-0.48828 0.39453,-0.49219 0.39453,-1.77344 0,-1.29297 -0.39453,-1.78125 -0.39063,-0.49218 -1.39063,-0.49218 h -0.375 v 4.53515 z m 0.0156,-5.18359 q 1.33594,0 1.96875,0.71094 0.63281,0.71093 0.63281,2.21093 0,1.49219 -0.63281,2.20313 Q 378.97266,268 377.63672,268 h -1.1836 v -5.83203 z" id="path63"/>
    <path d="m 381.50391,262.16797 h 3.46093 v 0.66406 h -2.67187 v 1.72656 h 2.55469 v 0.66407 h -2.55469 v 2.11328 h 2.74609 V 268 h -3.53515 z" id="path65"/>
    <path d="m 389.50391,262.36719 v 0.80078 q -0.35938,-0.23047 -0.72266,-0.34766 -0.35938,-0.11719 -0.72656,-0.11719 -0.5586,0 -0.88282,0.26172 -0.32421,0.25782 -0.32421,0.69922 0,0.38672 0.21093,0.58985 0.21485,0.20312 0.79688,0.33984 l 0.41406,0.0937 q 0.82031,0.19141 1.19531,0.60156 0.375,0.41016 0.375,1.11719 0,0.83203 -0.51562,1.26953 -0.51563,0.4375 -1.5,0.4375 -0.41016,0 -0.82422,-0.0898 -0.41406,-0.0859 -0.83203,-0.26172 v -0.83985 q 0.44922,0.28516 0.84765,0.41797 0.40235,0.13282 0.8086,0.13282 0.59765,0 0.92969,-0.26563 0.33203,-0.26953 0.33203,-0.75 0,-0.4375 -0.23047,-0.66797 -0.22656,-0.23047 -0.79297,-0.35547 l -0.42188,-0.0976 q -0.8125,-0.1836 -1.17968,-0.55469 -0.36719,-0.37109 -0.36719,-0.99609 0,-0.78125 0.52344,-1.25 0.52734,-0.47266 1.39843,-0.47266 0.33594,0 0.70704,0.0781 0.37109,0.0742 0.78125,0.22657 z" id="path67"/>
    <path d="m 391.15234,262.16797 h 3.23828 v 0.66406 h -1.22265 v 4.50391 h 1.22265 V 268 h -3.23828 v -0.66406 h 1.22266 v -4.50391 h -1.22266 z" id="path69"/>
    <path d="m 399.49609,267.51953 q -0.3164,0.29297 -0.71484,0.44531 -0.39453,0.14844 -0.85547,0.14844 -1.10937,0 -1.72656,-0.79297 -0.61719,-0.79687 -0.61719,-2.23047 0,-1.42968 0.625,-2.22656 0.625,-0.80078 1.73828,-0.80078 0.36719,0 0.70313,0.10547 0.33593,0.10156 0.64843,0.3125 v 0.80859 q -0.3164,-0.30078 -0.64843,-0.4414 -0.33203,-0.14454 -0.70313,-0.14454 -0.76953,0 -1.15625,0.59766 -0.38281,0.59375 -0.38281,1.78906 0,1.21485 0.37109,1.80078 0.375,0.58204 1.14844,0.58204 0.26172,0 0.45703,-0.0586 0.19922,-0.0625 0.35938,-0.1914 v -1.56641 h -0.84766 v -0.64844 h 1.60156 z" id="path71"/>
    <path d="m 400.54297,262.16797 h 1 l 1.96875,4.80078 v -4.80078 h 0.76172 V 268 h -1 l -1.96875,-4.80078 V 268 h -0.76172 z" id="path73"/>
    <path d="m 405.35156,262.16797 h 0.79297 v 2.39062 h 2.16016 v -2.39062 h 0.79297 V 268 h -0.79297 v -2.77734 h -2.16016 V 268 h -0.79297 z" id="path75"/>
    <path d="m 413.16797,265.08984 q 0,-1.28515 -0.26563,-1.83593 -0.26172,-0.55079 -0.86328,-0.55079 -0.59765,0 -0.86328,0.55079 -0.26172,0.55078 -0.26172,1.83593 0,1.28125 0.26172,1.83203 0.26563,0.55079 0.86328,0.55079 0.60156,0 0.86328,-0.54688 0.26563,-0.55078 0.26563,-1.83594 z m 0.82422,0 q 0,1.52344 -0.48438,2.27344 -0.48047,0.75 -1.46875,0.75 -0.98828,0 -1.46875,-0.74609 -0.48047,-0.7461 -0.48047,-2.27735 0,-1.52734 0.48047,-2.27734 0.48438,-0.75 1.46875,-0.75 0.98828,0 1.46875,0.75 0.48438,0.75 0.48438,2.27734 z" id="path77"/>
    <path d="m 415.02344,265.76172 v -3.59375 h 0.79297 v 3.95312 q 0,0.42578 0.0234,0.60938 0.0234,0.17969 0.082,0.27734 0.125,0.23047 0.35938,0.34766 0.23828,0.11719 0.57422,0.11719 0.33984,0 0.57422,-0.11719 0.23437,-0.11719 0.36328,-0.34766 0.0586,-0.0976 0.082,-0.27734 0.0234,-0.17969 0.0234,-0.60156 v -3.96094 h 0.78906 v 3.59375 q 0,0.89453 -0.11328,1.27344 -0.10938,0.375 -0.38281,0.62109 -0.25782,0.23047 -0.58985,0.34375 -0.33203,0.11328 -0.74609,0.11328 -0.41016,0 -0.74219,-0.11328 -0.33203,-0.11328 -0.59375,-0.34375 -0.26953,-0.24219 -0.38281,-0.625 -0.11328,-0.38672 -0.11328,-1.26953 z" id="path79"/>
    <path d="m 423.21875,262.36719 v 0.80078 q -0.35938,-0.23047 -0.72266,-0.34766 -0.35937,-0.11719 -0.72656,-0.11719 -0.55859,0 -0.88281,0.26172 -0.32422,0.25782 -0.32422,0.69922 0,0.38672 0.21094,0.58985 0.21484,0.20312 0.79687,0.33984 l 0.41406,0.0937 q 0.82032,0.19141 1.19532,0.60156 0.375,0.41016 0.375,1.11719 0,0.83203 -0.51563,1.26953 -0.51562,0.4375 -1.5,0.4375 -0.41015,0 -0.82422,-0.0898 -0.41406,-0.0859 -0.83203,-0.26172 v -0.83985 q 0.44922,0.28516 0.84766,0.41797 0.40234,0.13282 0.80859,0.13282 0.59766,0 0.92969,-0.26563 0.33203,-0.26953 0.33203,-0.75 0,-0.4375 -0.23047,-0.66797 -0.22656,-0.23047 -0.79297,-0.35547 l -0.42187,-0.0976 q -0.8125,-0.1836 -1.17969,-0.55469 -0.36719,-0.37109 -0.36719,-0.99609 0,-0.78125 0.52344,-1.25 0.52734,-0.47266 1.39844,-0.47266 0.33594,0 0.70703,0.0781 0.37109,0.0742 0.78125,0.22657 z" id="path81"/>
    <path d="m 424.85156,262.16797 h 3.46094 v 0.66406 h -2.67188 v 1.72656 h 2.55469 v 0.66407 h -2.55469 v 2.11328 h 2.7461 V 268 h -3.53516 z" id="path83"/>
    <path d="m 434.55469,262.16797 h 0.79297 v 5.16797 h 2.8164 V 268 h -3.60937 z" id="path85"/>
    <path d="m 439.31641,262.16797 h 3.23828 v 0.66406 h -1.22266 v 4.50391 h 1.22266 V 268 h -3.23828 v -0.66406 h 1.22265 v -4.50391 h -1.22265 z" id="path87"/>
    <path d="m 447.66016,267.51953 q -0.31641,0.29297 -0.71485,0.44531 -0.39453,0.14844 -0.85547,0.14844 -1.10937,0 -1.72656,-0.79297 -0.61719,-0.79687 -0.61719,-2.23047 0,-1.42968 0.625,-2.22656 0.625,-0.80078 1.73828,-0.80078 0.36719,0 0.70313,0.10547 0.33594,0.10156 0.64844,0.3125 v 0.80859 q -0.31641,-0.30078 -0.64844,-0.4414 -0.33203,-0.14454 -0.70313,-0.14454 -0.76953,0 -1.15625,0.59766 -0.38281,0.59375 -0.38281,1.78906 0,1.21485 0.3711,1.80078 0.375,0.58204 1.14843,0.58204 0.26172,0 0.45703,-0.0586 0.19922,-0.0625 0.35938,-0.1914 v -1.56641 h -0.84766 v -0.64844 h 1.60157 z" id="path89"/>
    <path d="m 448.69922,262.16797 h 0.79297 v 2.39062 h 2.16015 v -2.39062 h 0.79297 V 268 h -0.79297 v -2.77734 h -2.16015 V 268 h -0.79297 z" id="path91"/>
    <path d="m 453.16406,262.16797 h 4.44922 v 0.66406 h -1.82422 V 268 h -0.79297 v -5.16797 h -1.83203 z" id="path93"/>
    <path d="m 465.34766,263.42578 v 1.73438 h 1.73828 v 0.66406 h -1.73828 v 1.73437 h -0.65625 v -1.73437 h -1.73438 v -0.66406 h 1.73438 v -1.73438 z" id="path95"/>
    <path d="m 473.6875,265.21484 v 2.13672 h 0.93359 q 0.6875,0 0.98047,-0.23828 0.29297,-0.24219 0.29297,-0.79297 0,-0.57031 -0.30859,-0.83594 -0.3086,-0.26953 -0.96485,-0.26953 z m 0,-2.39843 v 1.75781 h 0.91797 q 0.57031,0 0.82422,-0.21875 0.25781,-0.21875 0.25781,-0.70703 0,-0.44141 -0.25391,-0.63672 -0.25,-0.19531 -0.82812,-0.19531 z m -0.79297,-0.64844 h 1.72656 q 0.89453,0 1.37891,0.38672 0.48437,0.38672 0.48437,1.09375 0,0.53515 -0.25781,0.84375 -0.2539,0.30859 -0.76562,0.38672 0.57422,0.0859 0.89843,0.49218 0.32813,0.40235 0.32813,1.02735 0,0.79297 -0.51953,1.19922 Q 475.64844,268 474.62109,268 h -1.72656 z" id="path97"/>
    <path d="m 477.90234,262.16797 h 0.79297 v 5.16797 h 2.81641 V 268 h -3.60938 z" id="path99"/>
    <path d="m 482.45312,265.76172 v -3.59375 h 0.79297 v 3.95312 q 0,0.42578 0.0234,0.60938 0.0234,0.17969 0.082,0.27734 0.125,0.23047 0.35938,0.34766 0.23828,0.11719 0.57422,0.11719 0.33984,0 0.57421,-0.11719 0.23438,-0.11719 0.36329,-0.34766 0.0586,-0.0976 0.082,-0.27734 0.0234,-0.17969 0.0234,-0.60156 v -3.96094 h 0.78907 v 3.59375 q 0,0.89453 -0.11328,1.27344 -0.10938,0.375 -0.38282,0.62109 -0.25781,0.23047 -0.58984,0.34375 -0.33203,0.11328 -0.74609,0.11328 -0.41016,0 -0.74219,-0.11328 -0.33203,-0.11328 -0.59375,-0.34375 -0.26953,-0.24219 -0.38281,-0.625 -0.11329,-0.38672 -0.11329,-1.26953 z" id="path101"/>
    <path d="m 487.46484,262.16797 h 3.46094 v 0.66406 h -2.67187 v 1.72656 h 2.55468 v 0.66407 h -2.55468 v 2.11328 H 491 V 268 h -3.53516 z" id="path103"/>
    <path d="m 498.03125,267.35156 q 0.99609,0 1.39062,-0.48828 0.39454,-0.49219 0.39454,-1.77344 0,-1.29297 -0.39454,-1.78125 -0.39062,-0.49218 -1.39062,-0.49218 h -0.375 v 4.53515 z m 0.0156,-5.18359 q 1.33594,0 1.96875,0.71094 0.63282,0.71093 0.63282,2.21093 0,1.49219 -0.63282,2.20313 Q 499.38281,268 498.04687,268 h -1.18359 v -5.83203 z" id="path105"/>
    <path d="m 504.67969,265.08984 q 0,-1.28515 -0.26563,-1.83593 -0.26172,-0.55079 -0.86328,-0.55079 -0.59766,0 -0.86328,0.55079 -0.26172,0.55078 -0.26172,1.83593 0,1.28125 0.26172,1.83203 0.26562,0.55079 0.86328,0.55079 0.60156,0 0.86328,-0.54688 0.26563,-0.55078 0.26563,-1.83594 z m 0.82422,0 q 0,1.52344 -0.48438,2.27344 -0.48047,0.75 -1.46875,0.75 -0.98828,0 -1.46875,-0.74609 -0.48047,-0.7461 -0.48047,-2.27735 0,-1.52734 0.48047,-2.27734 0.48438,-0.75 1.46875,-0.75 0.98828,0 1.46875,0.75 0.48438,0.75 0.48438,2.27734 z" id="path107"/>
    <path d="m 506.14453,262.16797 h 4.44922 v 0.66406 h -1.82422 V 268 h -0.79297 v -5.16797 h -1.83203 z" id="path109"/>
  </g>
</svg>
